<?xml version="1.0" encoding="UTF-8" standalone="no"?><!DOCTYPE svg PUBLIC "-//W3C//DTD SVG 1.1//EN" "http://www.w3.org/Graphics/SVG/1.1/DTD/svg11.dtd"><svg width="100%" height="100%" viewBox="0 0 24 24" version="1.1" xmlns="http://www.w3.org/2000/svg" xmlns:xlink="http://www.w3.org/1999/xlink" xml:space="preserve" xmlns:serif="http://www.serif.com/" style="fill-rule:evenodd;clip-rule:evenodd;stroke-linecap:round;stroke-linejoin:round;stroke-miterlimit:1.5;"><circle cx="12.028" cy="7.139" r="6.311" style="fill:none;stroke:#fff;stroke-width:0.8px;"/><path d="M1.062,23.363l21.838,0.085c0,0 -0.524,-5.318 -7.117,-8.407c-2.035,2.212 -3.845,3.786 -3.845,3.786c0,0 -2.074,-2.107 -3.799,-3.723c-5.355,1.578 -7.077,8.259 -7.077,8.259Z" style="fill:none;stroke:#fff;stroke-width:0.8px;"/><path d="M20.437,18.573l0,4.495" style="fill:none;stroke:#fff;stroke-width:0.8px;"/><path d="M17.658,16.283l0,6.886" style="fill:none;stroke:#fff;stroke-width:0.8px;"/><path d="M14.767,16.376l0,6.886" style="fill:none;stroke:#fff;stroke-width:0.8px;"/><path d="M9.046,16.23l-0,6.886" style="fill:none;stroke:#fff;stroke-width:0.8px;"/><path d="M6.303,16.23l-0,6.886" style="fill:none;stroke:#fff;stroke-width:0.8px;"/><path d="M11.985,18.917l-0,4.43" style="fill:none;stroke:#fff;stroke-width:0.8px;"/><path d="M3.483,18.869l-0,4.43" style="fill:none;stroke:#fff;stroke-width:0.8px;"/></svg>